<?xml version="1.0" encoding="UTF-8" standalone="no"?>
<!-- Created with Inkscape (http://www.inkscape.org/) -->

<svg
   xmlns:dc="http://purl.org/dc/elements/1.1/"
   xmlns:cc="http://creativecommons.org/ns#"
   xmlns:rdf="http://www.w3.org/1999/02/22-rdf-syntax-ns#"
   xmlns:svg="http://www.w3.org/2000/svg"
   xmlns="http://www.w3.org/2000/svg"
   xmlns:sodipodi="http://sodipodi.sourceforge.net/DTD/sodipodi-0.dtd"
   xmlns:inkscape="http://www.inkscape.org/namespaces/inkscape"
   width="256"
   height="256"
   viewBox="0 0 67.733332 67.733335"
   version="1.1"
   id="svg8"
   inkscape:version="0.92.1 r15371"
   sodipodi:docname="solder.svg">
  <defs
     id="defs2" />
  <sodipodi:namedview
     id="base"
     pagecolor="#ffffff"
     bordercolor="#666666"
     borderopacity="1.0"
     inkscape:pageopacity="0.0"
     inkscape:pageshadow="2"
     inkscape:zoom="0.9899495"
     inkscape:cx="-32.857142"
     inkscape:cy="115.96111"
     inkscape:document-units="mm"
     inkscape:current-layer="layer1"
     showgrid="false"
     units="px"
     inkscape:window-width="1236"
     inkscape:window-height="790"
     inkscape:window-x="403"
     inkscape:window-y="134"
     inkscape:window-maximized="0" />
  <metadata
     id="metadata5">
    <rdf:RDF>
      <cc:Work
         rdf:about="">
        <dc:format>image/svg+xml</dc:format>
        <dc:type
           rdf:resource="http://purl.org/dc/dcmitype/StillImage" />
        <dc:title />
      </cc:Work>
    </rdf:RDF>
  </metadata>
  <g
     inkscape:label="Layer 1"
     inkscape:groupmode="layer"
     id="layer1"
     transform="translate(0,-229.26665)">
    <path
       style="fill:#f9f647;fill-opacity:1;stroke:#000000;stroke-width:0.26458332;stroke-opacity:1;opacity:1"
       d="m 26.80805,248.30488 c -0.985224,-0.81376 -2.844692,-0.82564 -3.833486,-0.0162 -1.912381,1.56547 -1.433818,7.27429 -1.433818,7.27429 l 0.879075,1.7055 -0.966084,1.88534 1.326515,3.75502 4.332818,-0.66145 0.522127,-3.08338 -0.865192,-1.28827 1.448225,-2.40374 c 0,0 0.467097,-5.61653 -1.41018,-7.16709 z"
       id="rect5089-0"
       inkscape:connector-curvature="0"
       sodipodi:nodetypes="saccccccccs"
       inkscape:export-xdpi="96"
       inkscape:export-ydpi="96" />
    <path
       style="fill:#f9f647;fill-opacity:1;stroke:#000000;stroke-width:0.26458332;stroke-opacity:1;opacity:1"
       d="m 41.876319,248.5378 c 0.985224,-0.81376 2.844692,-0.82564 3.833486,-0.0162 1.912381,1.56547 1.433818,7.27429 1.433818,7.27429 l -0.879075,1.7055 0.966084,1.88534 -1.326515,3.75502 -4.332818,-0.66145 -0.522127,-3.08338 0.865192,-1.28827 -1.448225,-2.40374 c 0,0 -0.467097,-5.61653 1.41018,-7.16709 z"
       id="rect5089"
       inkscape:connector-curvature="0"
       sodipodi:nodetypes="saccccccccs"
       inkscape:export-xdpi="96"
       inkscape:export-ydpi="96" />
    <path
       style="fill:#b5d34e;fill-opacity:1;stroke:#000000;stroke-width:0.26458332;stroke-opacity:1;opacity:1"
       d="m 12.294398,243.27881 h 8.285355 v 4.14268 l -3.207234,1.60361 2.004521,14.69982 -6.949007,0.26727 -0.23461,-12.01368 1.170053,-3.22068 z"
       id="rect5069"
       inkscape:connector-curvature="0"
       sodipodi:nodetypes="ccccccccc"
       inkscape:export-xdpi="96"
       inkscape:export-ydpi="96" />
    <path
       style="opacity:1;fill:#96832b;fill-opacity:1;fill-rule:nonzero;stroke:#000000;stroke-width:0.26499999;stroke-miterlimit:4;stroke-dasharray:none;stroke-opacity:1"
       d="m 22.049735,265.8631 24.722431,0.13363 0,7.88446 -3.340868,2.40542 -3.207234,-2.93996 -2.138157,4.27631 -6.949007,0 -2.939965,-4.14268 -2.80633,3.0736 -3.34087,-3.34087 z"
       id="rect5066"
       inkscape:connector-curvature="0"
       sodipodi:nodetypes="ccccccccccc"
       inkscape:export-xdpi="96"
       inkscape:export-ydpi="96" />
    <path
       style="fill:#3270c3;fill-opacity:1;stroke:#000000;stroke-width:0.26458332;stroke-opacity:1;opacity:1"
       d="m 12.160763,256.90957 18.708866,-2.80633 -0.801809,16.30345 -17.639788,-3.20724 z"
       id="rect5048"
       inkscape:connector-curvature="0"
       sodipodi:nodetypes="ccccc"
       inkscape:export-xdpi="96"
       inkscape:export-ydpi="96" />
    <path
       style="fill:#b5d550;fill-opacity:0.95833331;stroke:#000000;stroke-width:0.26458332;stroke-opacity:1;opacity:1"
       d="M 56.343155,242.80855 H 48.0578 v 4.14268 l 3.207234,1.60361 -2.004521,14.69982 6.949007,0.26727 0.23461,-12.01368 -1.170053,-3.22068 z"
       id="rect5069-2"
       inkscape:connector-curvature="0"
       sodipodi:nodetypes="ccccccccc"
       inkscape:export-xdpi="96"
       inkscape:export-ydpi="96" />
    <path
       style="fill:#3270c3;fill-opacity:1;stroke:#000000;stroke-width:0.26458332;stroke-opacity:1;opacity:1"
       d="m 56.529895,257.4429 -18.575231,-3.34087 0.801809,16.30345 17.907058,-3.20724 z"
       id="rect5048-6"
       inkscape:connector-curvature="0"
       sodipodi:nodetypes="ccccc"
       inkscape:export-xdpi="96"
       inkscape:export-ydpi="96" />
    <ellipse
       id="path17"
       cx="34.544586"
       cy="261.65359"
       rx="9.822154"
       ry="10.22306"
       style="stroke-width:0.26458332;fill:#c33235;fill-opacity:1;stroke:#000000;stroke-opacity:1;opacity:1"
       inkscape:export-xdpi="96"
       inkscape:export-ydpi="96" />
    <path
       style="opacity:1;fill:#c332b9;fill-opacity:1;fill-rule:nonzero;stroke:#000000;stroke-width:0.2931765;stroke-miterlimit:4;stroke-dasharray:none;stroke-opacity:1"
       d="m 30.127855,257.25205 4.275323,-3.88985 4.253832,4.30354 -2.603925,0.20856 2.038939,10.81483 -7.176003,-0.1431 2.065636,-10.80122 z"
       id="rect5145"
       inkscape:connector-curvature="0"
       sodipodi:nodetypes="cccccccc"
       inkscape:export-xdpi="96"
       inkscape:export-ydpi="96" />
    <path
       sodipodi:type="star"
       style="opacity:1;fill:#c332b9;fill-opacity:1;fill-rule:nonzero;stroke:#000000;stroke-width:0.26499999;stroke-miterlimit:4;stroke-dasharray:none;stroke-opacity:1"
       id="path5148"
       sodipodi:sides="5"
       sodipodi:cx="16.300223"
       sodipodi:cy="261.98993"
       sodipodi:r1="2.7112546"
       sodipodi:r2="1.3556274"
       sodipodi:arg1="0.84704833"
       sodipodi:arg2="1.4753669"
       inkscape:flatsided="false"
       inkscape:rounded="0"
       inkscape:randomized="0"
       d="m 18.095609,264.02155 -1.666216,-0.68216 -1.506553,0.98586 0.133886,-1.79547 -1.403159,-1.12817 1.748962,-0.42749 0.639352,-1.68311 0.947033,1.53126 1.798301,0.0879 -1.163665,1.37387 z"
       inkscape:transform-center-x="0.07983196"
       inkscape:transform-center-y="-0.18179966"
       inkscape:export-xdpi="96"
       inkscape:export-ydpi="96" />
    <path
       sodipodi:type="star"
       style="opacity:1;fill:#c332b9;fill-opacity:1;fill-rule:nonzero;stroke:#000000;stroke-width:0.26499999;stroke-miterlimit:4;stroke-dasharray:none;stroke-opacity:1"
       id="path5148-1"
       sodipodi:sides="5"
       sodipodi:cx="52.541939"
       sodipodi:cy="261.67914"
       sodipodi:r1="2.7112546"
       sodipodi:r2="1.3556274"
       sodipodi:arg1="0.84704833"
       sodipodi:arg2="1.4753669"
       inkscape:flatsided="false"
       inkscape:rounded="0"
       inkscape:randomized="0"
       d="m 54.337326,263.71076 -1.666217,-0.68216 -1.506552,0.98586 0.133885,-1.79547 -1.403159,-1.12817 1.748962,-0.42749 0.639353,-1.68311 0.947032,1.53126 1.798301,0.0879 -1.163664,1.37387 z"
       inkscape:transform-center-x="0.07983196"
       inkscape:transform-center-y="-0.18179966" />
    <g
       id="g5177"
       transform="matrix(1.8521514,0,0,1.4685669,-12.750771,-99.661036)"
       inkscape:export-xdpi="96"
       inkscape:export-ydpi="96">
      <path
         sodipodi:nodetypes="ccccccccccccccccccc"
         inkscape:connector-curvature="0"
         id="rect5165"
         d="m 4.0954303,234.0499 3.9424821,0.0231 1.3839358,0.6849 8.6834908,0.17895 0.504703,-0.85691 13.632103,0.27643 1.036927,0.83532 3.674937,-0.0262 2.200977,-0.43933 0.08639,2.53095 -2.337665,-0.64561 -3.738643,-0.15982 -1.131133,0.64482 -13.512335,0.0745 -0.526028,-0.83003 -8.4873501,-0.25193 -1.3370968,0.57597 -4.2093276,-0.0761 z"
         style="opacity:1;fill:#96aeb9;fill-opacity:1;fill-rule:nonzero;stroke:#000000;stroke-width:0.26499999;stroke-miterlimit:4;stroke-dasharray:none;stroke-opacity:1" />
      <rect
         y="235.15817"
         x="18.759125"
         height="1.1736041"
         width="13.533135"
         id="rect5168"
         style="opacity:1;fill:#96aeb9;fill-opacity:1;fill-rule:nonzero;stroke:#000000;stroke-width:0.18799061;stroke-miterlimit:4;stroke-dasharray:none;stroke-opacity:1" />
    </g>
  </g>
</svg>
